<svg width="800" height="600" xmlns="http://www.w3.org/2000/svg">
 <!-- Created with Method Draw - http://github.com/duopixel/Method-Draw/ -->

 <g>
  <title>background</title>
  <rect fill="#fff" id="canvas_background" height="602" width="802" y="-1" x="-1"/>
  <g display="none" overflow="visible" y="0" x="0" height="100%" width="100%" id="canvasGrid">
   <rect fill="url(#gridpattern)" stroke-width="0" y="0" x="0" height="100%" width="100%"/>
  </g>
 </g>
 <g>
  <title>Layer 1</title>
  <g id="svg_33">
   <ellipse transform="matrix(0.1155, 0, 0, 0.10847, 186.037, 127)" id="svg_5" fill="#e6e6e6" ry="14" rx="204" cy="1331.99939" cx="1227.99927"/>
   <path id="svg_6" fill="#3f3d56" d="m337.26454,242.69285c0.23125,-1.21962 1.42831,-1.93634 2.62188,-2.22319c1.36231,-0.3274 2.81446,-0.28711 4.20088,-0.13943c2.79187,0.29738 5.53322,1.10102 8.36642,0.97642a14.09331,13.23547 0 0 0 6.92445,-2.09261a13.63681,12.80676 0 0 0 4.86122,-5.11757a14.10778,13.24906 0 0 0 1.41715,-6.78022c-0.02317,-0.29065 -0.05838,-0.5801 -0.10186,-0.86866c-0.03111,-0.2065 -0.36503,-0.11865 -0.33412,0.08651a13.65057,12.81968 0 0 1 -1.00733,6.84272a13.31911,12.5084 0 0 1 -4.58968,5.29198a13.78186,12.94298 0 0 1 -6.82564,2.29306c-2.79702,0.19181 -5.51477,-0.5632 -8.26344,-0.90521c-1.38824,-0.17273 -2.80413,-0.23709 -4.19016,-0.01065c-1.22773,0.20057 -2.4873,0.71623 -3.11753,1.78443a2.67592,2.51304 0 0 0 -0.29636,0.77593c-0.03883,0.20478 0.29503,0.29266 0.33412,0.08651l0,0z"/>
   <circle transform="matrix(0.1155, 0, 0, 0.10847, 186.037, 127)" id="svg_7" fill="#ea3b74" r="125" cy="797.99939" cx="1542.99927"/>
   <circle transform="matrix(0.1155, 0, 0, 0.10847, 186.037, 127)" id="svg_8" fill="#fff" r="32" cy="772.99939" cx="1495.99927"/>
   <path id="svg_9" fill="#fff" d="m359.98306,217.78896a2.1973,2.06356 0 0 0 2.19145,1.95245l6.006,0a2.1973,2.06355 0 0 0 2.19145,-1.95245l-10.38891,0z"/>
   <circle transform="matrix(0.1155, 0, 0, 0.10847, 186.037, 127)" id="svg_10" fill="#3f3d56" r="17" cy="783.49939" cx="1483.99927"/>
   <circle transform="matrix(0.1155, 0, 0, 0.10847, 186.037, 127)" id="svg_11" fill="#fff" r="4" cy="776.49939" cx="1489.99927"/>
   <circle transform="matrix(0.1155, 0, 0, 0.10847, 186.037, 127)" id="svg_12" fill="#fff" r="32" cy="773.49939" cx="1599.99927"/>
   <circle transform="matrix(0.1155, 0, 0, 0.10847, 186.037, 127)" id="svg_13" fill="#3f3d56" r="17" cy="783.49939" cx="1587.99927"/>
   <circle transform="matrix(0.1155, 0, 0, 0.10847, 186.037, 127)" id="svg_14" fill="#fff" r="4" cy="776.49939" cx="1593.99927"/>
   <circle transform="matrix(0.1155, 0, 0, 0.10847, 186.037, 127)" id="svg_15" fill="#3f3d56" r="12" cy="808.99939" cx="1544.99927"/>
   <rect transform="matrix(0.1155, 0, 0, 0.10847, 186.037, 127)" id="svg_16" fill="#ea3b74" height="17" width="22" y="915.99939" x="1540.99927"/>
   <path id="svg_17" fill="#ffb9b9" d="m330.09574,262.59987s1.63044,4.48422 0.93168,6.12479l2.09628,1.74994l1.28106,-1.5312s-1.39752,-1.31246 -1.28106,-2.2968s0.23292,-4.48422 0.23292,-4.48422l-3.26088,0.43748z"/>
   <path id="svg_18" fill="#2f2e41" d="m337.89792,271.34897c-0.09521,0.05227 -0.18602,0.10179 -0.26951,0.14719l-7.22846,0a0.3815,0.35828 0 0 1 -0.18748,-0.36591c0.03369,-0.16232 0.1201,-0.49245 0.22703,-0.87211c0.2534,-0.89826 0.62543,-2.07437 0.706,-1.9492a0.00143,0.00135 0 0 1 0.00146,0.00138c0.11279,0.19534 0.34568,1.0702 0.92865,0.96153c0.58296,-0.11004 1.51454,-0.32876 1.51454,-0.32876s-0.3325,-0.70155 -0.01465,-0.98492a0.44548,0.41837 0 0 1 0.24754,-0.10867c0.69868,-0.10867 0.69868,0.87487 0.69868,0.87487l2.56182,1.3123a4.25529,3.99628 0 0 1 0.64449,0.22147c0.51998,0.22834 1.0341,0.61901 0.1699,1.09083z"/>
   <path id="svg_19" fill="#ffb9b9" d="m325.43734,260.9593l-3.02796,3.39051l-0.81522,1.74994l1.04814,0.7656l0.93168,-0.32811s0.81522,-1.96868 1.63044,-2.2968s2.79504,-2.51554 2.79504,-2.51554l-2.56212,-0.7656z"/>
   <path id="svg_20" fill="#2f2e41" d="m331.78441,258.35735l-1.54426,2.68835l-1.10637,1.92494c-0.35404,0.19796 -0.8257,0.19468 -1.33347,0.07765a5.10708,4.79622 0 0 1 -0.6941,-0.21765c-1.38588,-0.53264 -2.79155,-1.59026 -2.79155,-1.59026l2.65995,-3.12146l0.86879,-1.01825l0.20614,-0.2428l0.99341,0.3992l1.75272,0.70326l0.98874,0.39701z"/>
   <path id="svg_21" fill="#ffb9b9" d="m324.89243,235.1432l-1.23356,4.75201l1.26974,6.09654s0.03128,2.4922 1.19485,2.30307s-0.05583,-2.70262 -0.05583,-2.70262l-0.56915,-4.99883l1.8197,-4.9386c0.1474,-0.40004 -0.03875,-0.8295 -0.4657,-1.07439l0,0c-0.72051,-0.41327 -1.74443,-0.11925 -1.96006,0.56283z"/>
   <path id="svg_22" fill="#ffb9b9" d="m329.22229,231.04625l-1.04814,3.0624l-1.97982,-0.98434s0.81522,-2.18742 0.81522,-2.51554s2.21274,0.43749 2.21274,0.43749z"/>
   <circle transform="matrix(0.1155, 0, 0, 0.10847, 186.037, 127)" id="svg_23" fill="#ffb9b9" r="21.17455" cy="949.13738" cx="1232.64042"/>
   <path id="svg_24" fill="#ea3b74" d="m329.0476,234.81956l-0.46584,-0.43749l-0.11646,-0.54686s-1.51398,-1.85931 -2.79504,-1.20308c-0.40033,0.20507 -0.6983,0.67716 -0.9188,1.22936a6.35907,5.97201 0 0 0 0.14628,4.44214l2.05358,4.50003l4.6584,-0.43749l-0.81522,-2.84365s0.81522,-1.74994 -0.69876,-2.95302l-1.04814,-1.74994z"/>
   <path id="svg_25" opacity="0.3" d="m331.78441,258.35735l-1.54426,2.68835l-1.10637,1.92494c-0.35404,0.19796 -0.8257,0.19468 -1.33347,0.07765c-0.0885,-0.55342 0.44022,-3.47801 0.02446,-5.8623l0.01863,-0.08531l0.20614,-0.2428l0.99341,0.3992l1.75272,0.70326l0.98875,0.39701z"/>
   <path id="svg_26" fill="#2f2e41" d="m331.78441,242.09275s-3.02796,-1.74994 -5.12424,0.43749l0.11646,0.65623s-1.7469,1.85931 -0.69876,5.79668s2.67858,14.21827 2.67858,14.21827s3.84318,0.21874 5.59008,-0.98434c0,0 -0.5823,-13.56204 -2.56212,-14.8745l0,-5.24982z"/>
   <path id="svg_27" fill="#ffb9b9" d="m325.47047,236.00116l3.28597,3.7948l5.93946,2.73428s2.1332,1.48272 2.67594,0.4978s-2.32656,-1.59151 -2.32656,-1.59151l-4.58481,-2.59511l-3.09005,-4.34613c-0.2503,-0.35205 -0.72714,-0.4723 -1.19292,-0.30084l0,0c-0.78602,0.28935 -1.15537,1.23317 -0.70703,1.80671z"/>
   <path id="svg_28" fill="#2f2e41" d="m323.29341,266.29695s0.71385,-0.84314 1.14028,-0.3119s-0.50287,0.9865 -0.50287,0.9865l-0.05409,2.74037s0.50711,2.09536 -0.86203,1.28581s-1.423,-0.90653 -1.69232,-1.39138s-0.82582,-2.43266 -1.30612,-3.06087s-0.92014,-1.89303 -0.35,-2.04898s3.2277,-0.71118 3.0953,-0.52623s-0.85072,0.78356 -0.47815,1.21783s1.00998,1.10887 1.00998,1.10887z"/>
   <path id="svg_29" fill="#2f2e41" d="m329.6879,227.99222c0.00001,-0.0028 0.00023,-0.00556 0.00023,-0.00837a3.37733,3.17176 0 1 0 -3.37733,3.17177c0.07846,0 0.38872,0.5518 0.46584,0.54686c0.00462,-1.67422 1.15783,-3.59785 2.91126,-3.71026z"/>
   <circle transform="matrix(0.1155, 0, 0, 0.10847, 186.037, 127)" id="svg_30" fill="#2f2e41" r="19.15793" cy="908.8049" cx="1183.23314"/>
   <path id="svg_31" fill="#2f2e41" d="m322.59902,222.42978a2.20968,2.07518 0 0 1 0.63128,4.06769a2.21115,2.07656 0 1 0 -0.63128,-4.06769z"/>
   <path id="svg_32" fill="#2f2e41" d="m327.82477,227.32762l1.77274,0a1.48814,1.39756 0 0 1 1.48814,1.39756l0,0.57112a0,0 0 0 1 0,0l-3.26088,0a0,0 0 0 1 0,0l0,-1.96868a0,0 0 0 1 0,0z"/>
  </g>
 </g>
</svg>